<mxfile host="app.diagrams.net" modified="2023-12-18T14:44:18.526Z" agent="Mozilla/5.0 (Macintosh; Intel Mac OS X 10_15_7) AppleWebKit/537.36 (KHTML, like Gecko) Chrome/120.0.0.0 Safari/537.36" etag="bQ5u9n-l02aBAsAJ3b4s" version="22.1.11" type="device">
  <diagram name="Page-1" id="00LbwMymcekWZyXn05xI">
    <mxGraphModel dx="1363" dy="761" grid="1" gridSize="10" guides="1" tooltips="1" connect="1" arrows="1" fold="1" page="1" pageScale="1" pageWidth="827" pageHeight="1169" math="0" shadow="0">
      <root>
        <mxCell id="0" />
        <mxCell id="1" parent="0" />
        <mxCell id="OhNUB4fjHs72dxbzbb0K-1" style="edgeStyle=orthogonalEdgeStyle;rounded=0;orthogonalLoop=1;jettySize=auto;html=1;entryX=0.5;entryY=0;entryDx=0;entryDy=0;" edge="1" parent="1" source="OhNUB4fjHs72dxbzbb0K-2" target="OhNUB4fjHs72dxbzbb0K-4">
          <mxGeometry relative="1" as="geometry" />
        </mxCell>
        <mxCell id="OhNUB4fjHs72dxbzbb0K-2" value="" style="ellipse;whiteSpace=wrap;html=1;aspect=fixed;fillColor=#000000;" vertex="1" parent="1">
          <mxGeometry x="265" y="60" width="30" height="30" as="geometry" />
        </mxCell>
        <mxCell id="OhNUB4fjHs72dxbzbb0K-3" style="edgeStyle=orthogonalEdgeStyle;rounded=0;orthogonalLoop=1;jettySize=auto;html=1;exitX=0;exitY=0;exitDx=0;exitDy=0;" edge="1" parent="1" source="OhNUB4fjHs72dxbzbb0K-4">
          <mxGeometry relative="1" as="geometry">
            <mxPoint x="220" y="170" as="targetPoint" />
            <Array as="points">
              <mxPoint x="180" y="280" />
              <mxPoint x="130" y="280" />
              <mxPoint x="130" y="120" />
              <mxPoint x="220" y="120" />
            </Array>
          </mxGeometry>
        </mxCell>
        <mxCell id="OhNUB4fjHs72dxbzbb0K-9" style="edgeStyle=orthogonalEdgeStyle;rounded=0;orthogonalLoop=1;jettySize=auto;html=1;entryX=0;entryY=0.5;entryDx=0;entryDy=0;" edge="1" parent="1" source="OhNUB4fjHs72dxbzbb0K-4" target="OhNUB4fjHs72dxbzbb0K-8">
          <mxGeometry relative="1" as="geometry" />
        </mxCell>
        <mxCell id="OhNUB4fjHs72dxbzbb0K-4" value="Validate" style="swimlane;whiteSpace=wrap;html=1;" vertex="1" parent="1">
          <mxGeometry x="180" y="180" width="200" height="200" as="geometry" />
        </mxCell>
        <mxCell id="OhNUB4fjHs72dxbzbb0K-5" value="do/check user" style="text;html=1;align=center;verticalAlign=middle;resizable=0;points=[];autosize=1;strokeColor=none;fillColor=none;" vertex="1" parent="OhNUB4fjHs72dxbzbb0K-4">
          <mxGeometry x="50" y="68" width="100" height="30" as="geometry" />
        </mxCell>
        <mxCell id="OhNUB4fjHs72dxbzbb0K-6" value="Login" style="text;html=1;align=center;verticalAlign=middle;resizable=0;points=[];autosize=1;strokeColor=none;fillColor=none;" vertex="1" parent="1">
          <mxGeometry x="290" y="108" width="50" height="30" as="geometry" />
        </mxCell>
        <mxCell id="OhNUB4fjHs72dxbzbb0K-7" value="[not valid]" style="text;html=1;align=center;verticalAlign=middle;resizable=0;points=[];autosize=1;strokeColor=none;fillColor=none;" vertex="1" parent="1">
          <mxGeometry x="50" y="180" width="70" height="30" as="geometry" />
        </mxCell>
        <mxCell id="OhNUB4fjHs72dxbzbb0K-13" style="edgeStyle=orthogonalEdgeStyle;rounded=0;orthogonalLoop=1;jettySize=auto;html=1;entryX=0;entryY=0.5;entryDx=0;entryDy=0;" edge="1" parent="1" source="OhNUB4fjHs72dxbzbb0K-8" target="OhNUB4fjHs72dxbzbb0K-12">
          <mxGeometry relative="1" as="geometry" />
        </mxCell>
        <mxCell id="OhNUB4fjHs72dxbzbb0K-17" style="edgeStyle=orthogonalEdgeStyle;rounded=0;orthogonalLoop=1;jettySize=auto;html=1;entryX=0.5;entryY=0;entryDx=0;entryDy=0;" edge="1" parent="1" source="OhNUB4fjHs72dxbzbb0K-8" target="OhNUB4fjHs72dxbzbb0K-16">
          <mxGeometry relative="1" as="geometry" />
        </mxCell>
        <mxCell id="OhNUB4fjHs72dxbzbb0K-8" value="View Calendar" style="swimlane;whiteSpace=wrap;html=1;" vertex="1" parent="1">
          <mxGeometry x="600" y="180" width="200" height="200" as="geometry" />
        </mxCell>
        <mxCell id="OhNUB4fjHs72dxbzbb0K-11" value="do/display dates" style="text;html=1;align=center;verticalAlign=middle;resizable=0;points=[];autosize=1;strokeColor=none;fillColor=none;" vertex="1" parent="OhNUB4fjHs72dxbzbb0K-8">
          <mxGeometry x="45" y="60" width="110" height="30" as="geometry" />
        </mxCell>
        <mxCell id="OhNUB4fjHs72dxbzbb0K-10" value="[valid]/access calendar" style="text;html=1;align=center;verticalAlign=middle;resizable=0;points=[];autosize=1;strokeColor=none;fillColor=none;" vertex="1" parent="1">
          <mxGeometry x="414" y="250" width="140" height="30" as="geometry" />
        </mxCell>
        <mxCell id="OhNUB4fjHs72dxbzbb0K-26" style="edgeStyle=orthogonalEdgeStyle;rounded=0;orthogonalLoop=1;jettySize=auto;html=1;entryX=0.5;entryY=0;entryDx=0;entryDy=0;" edge="1" parent="1" source="OhNUB4fjHs72dxbzbb0K-12" target="OhNUB4fjHs72dxbzbb0K-23">
          <mxGeometry relative="1" as="geometry" />
        </mxCell>
        <mxCell id="OhNUB4fjHs72dxbzbb0K-32" style="edgeStyle=orthogonalEdgeStyle;rounded=0;orthogonalLoop=1;jettySize=auto;html=1;entryX=1;entryY=0.5;entryDx=0;entryDy=0;" edge="1" parent="1" source="OhNUB4fjHs72dxbzbb0K-12" target="OhNUB4fjHs72dxbzbb0K-30">
          <mxGeometry relative="1" as="geometry">
            <mxPoint x="1390" y="900" as="targetPoint" />
            <Array as="points">
              <mxPoint x="1370" y="280" />
              <mxPoint x="1370" y="1090" />
            </Array>
          </mxGeometry>
        </mxCell>
        <mxCell id="OhNUB4fjHs72dxbzbb0K-12" value="View event" style="swimlane;whiteSpace=wrap;html=1;" vertex="1" parent="1">
          <mxGeometry x="970" y="180" width="200" height="200" as="geometry" />
        </mxCell>
        <mxCell id="OhNUB4fjHs72dxbzbb0K-15" value="do/display further event details&amp;nbsp;" style="text;html=1;align=center;verticalAlign=middle;resizable=0;points=[];autosize=1;strokeColor=none;fillColor=none;" vertex="1" parent="OhNUB4fjHs72dxbzbb0K-12">
          <mxGeometry x="10" y="60" width="190" height="30" as="geometry" />
        </mxCell>
        <mxCell id="OhNUB4fjHs72dxbzbb0K-14" value="[event exists]/access a date" style="text;html=1;align=center;verticalAlign=middle;resizable=0;points=[];autosize=1;strokeColor=none;fillColor=none;" vertex="1" parent="1">
          <mxGeometry x="800" y="250" width="170" height="30" as="geometry" />
        </mxCell>
        <mxCell id="OhNUB4fjHs72dxbzbb0K-24" style="edgeStyle=orthogonalEdgeStyle;rounded=0;orthogonalLoop=1;jettySize=auto;html=1;entryX=0;entryY=0.5;entryDx=0;entryDy=0;" edge="1" parent="1" source="OhNUB4fjHs72dxbzbb0K-16" target="OhNUB4fjHs72dxbzbb0K-23">
          <mxGeometry relative="1" as="geometry" />
        </mxCell>
        <mxCell id="OhNUB4fjHs72dxbzbb0K-16" value="Add event" style="swimlane;whiteSpace=wrap;html=1;" vertex="1" parent="1">
          <mxGeometry x="600" y="510" width="200" height="200" as="geometry" />
        </mxCell>
        <mxCell id="OhNUB4fjHs72dxbzbb0K-19" value="do/adding personal events" style="text;html=1;align=center;verticalAlign=middle;resizable=0;points=[];autosize=1;strokeColor=none;fillColor=none;" vertex="1" parent="OhNUB4fjHs72dxbzbb0K-16">
          <mxGeometry x="27.5" y="60" width="160" height="30" as="geometry" />
        </mxCell>
        <mxCell id="OhNUB4fjHs72dxbzbb0K-18" value="[event does not exist]/access a date" style="text;html=1;align=center;verticalAlign=middle;resizable=0;points=[];autosize=1;strokeColor=none;fillColor=none;" vertex="1" parent="1">
          <mxGeometry x="700" y="418" width="210" height="30" as="geometry" />
        </mxCell>
        <mxCell id="OhNUB4fjHs72dxbzbb0K-29" style="edgeStyle=orthogonalEdgeStyle;rounded=0;orthogonalLoop=1;jettySize=auto;html=1;" edge="1" parent="1" source="OhNUB4fjHs72dxbzbb0K-23">
          <mxGeometry relative="1" as="geometry">
            <mxPoint x="1112.5" y="880" as="targetPoint" />
          </mxGeometry>
        </mxCell>
        <mxCell id="OhNUB4fjHs72dxbzbb0K-23" value="Set notification" style="swimlane;whiteSpace=wrap;html=1;" vertex="1" parent="1">
          <mxGeometry x="1010" y="510" width="205" height="200" as="geometry" />
        </mxCell>
        <mxCell id="OhNUB4fjHs72dxbzbb0K-28" value="do/set recieve notification for event" style="text;html=1;align=center;verticalAlign=middle;resizable=0;points=[];autosize=1;strokeColor=none;fillColor=none;" vertex="1" parent="OhNUB4fjHs72dxbzbb0K-23">
          <mxGeometry x="-5" y="68" width="210" height="30" as="geometry" />
        </mxCell>
        <mxCell id="OhNUB4fjHs72dxbzbb0K-25" value="access notification facility for event" style="text;html=1;align=center;verticalAlign=middle;resizable=0;points=[];autosize=1;strokeColor=none;fillColor=none;" vertex="1" parent="1">
          <mxGeometry x="800" y="578" width="210" height="30" as="geometry" />
        </mxCell>
        <mxCell id="OhNUB4fjHs72dxbzbb0K-27" value="access notification facility for event" style="text;html=1;align=center;verticalAlign=middle;resizable=0;points=[];autosize=1;strokeColor=none;fillColor=none;" vertex="1" parent="1">
          <mxGeometry x="1070" y="418" width="210" height="30" as="geometry" />
        </mxCell>
        <mxCell id="OhNUB4fjHs72dxbzbb0K-30" value="" style="ellipse;whiteSpace=wrap;html=1;aspect=fixed;" vertex="1" parent="1">
          <mxGeometry x="1095" y="1070" width="40" height="40" as="geometry" />
        </mxCell>
        <mxCell id="OhNUB4fjHs72dxbzbb0K-31" value="" style="ellipse;whiteSpace=wrap;html=1;aspect=fixed;fillColor=#000000;" vertex="1" parent="1">
          <mxGeometry x="1100" y="1075" width="30" height="30" as="geometry" />
        </mxCell>
        <mxCell id="OhNUB4fjHs72dxbzbb0K-33" value="exit calendar" style="text;html=1;align=center;verticalAlign=middle;resizable=0;points=[];autosize=1;strokeColor=none;fillColor=none;" vertex="1" parent="1">
          <mxGeometry x="1370" y="595" width="90" height="30" as="geometry" />
        </mxCell>
        <mxCell id="OhNUB4fjHs72dxbzbb0K-39" style="edgeStyle=orthogonalEdgeStyle;rounded=0;orthogonalLoop=1;jettySize=auto;html=1;entryX=0.5;entryY=0;entryDx=0;entryDy=0;" edge="1" parent="1" source="OhNUB4fjHs72dxbzbb0K-37" target="OhNUB4fjHs72dxbzbb0K-30">
          <mxGeometry relative="1" as="geometry" />
        </mxCell>
        <mxCell id="OhNUB4fjHs72dxbzbb0K-37" value="" style="swimlane;startSize=0;" vertex="1" parent="1">
          <mxGeometry x="1015" y="880" width="200" height="70" as="geometry" />
        </mxCell>
        <mxCell id="OhNUB4fjHs72dxbzbb0K-38" value="preview Event" style="text;html=1;align=center;verticalAlign=middle;resizable=0;points=[];autosize=1;strokeColor=none;fillColor=none;" vertex="1" parent="OhNUB4fjHs72dxbzbb0K-37">
          <mxGeometry x="50" y="20" width="100" height="30" as="geometry" />
        </mxCell>
        <mxCell id="OhNUB4fjHs72dxbzbb0K-40" value="[notification set]" style="text;html=1;align=center;verticalAlign=middle;resizable=0;points=[];autosize=1;strokeColor=none;fillColor=none;" vertex="1" parent="1">
          <mxGeometry x="1105" y="768" width="110" height="30" as="geometry" />
        </mxCell>
      </root>
    </mxGraphModel>
  </diagram>
</mxfile>
